<svg width="500" height="300" xmlns="http://www.w3.org/2000/svg">
  <!-- Background -->
  <rect width="500" height="300" fill="#f8f9fa" rx="10" ry="10"/>
  
  <!-- Decorative elements -->
  <circle cx="100" cy="50" r="30" fill="#4B0082" opacity="0.1"/>
  <circle cx="400" cy="250" r="40" fill="#4B0082" opacity="0.1"/>
  <circle cx="450" cy="80" r="20" fill="#FF8C00" opacity="0.2"/>
  <circle cx="50" cy="200" r="25" fill="#FF8C00" opacity="0.2"/>
  
  <!-- Document icon -->
  <rect x="175" y="70" width="150" height="180" fill="white" stroke="#4B0082" stroke-width="2" rx="5" ry="5"/>
  <line x1="200" y1="110" x2="300" y2="110" stroke="#4B0082" stroke-width="2"/>
  <line x1="200" y1="140" x2="300" y2="140" stroke="#4B0082" stroke-width="2"/>
  <line x1="200" y1="170" x2="300" y2="170" stroke="#4B0082" stroke-width="2"/>
  <line x1="200" y1="200" x2="260" y2="200" stroke="#4B0082" stroke-width="2"/>
  
  <!-- Gear icon -->
  <circle cx="350" cy="120" r="30" fill="#FF8C00" opacity="0.8"/>
  <circle cx="350" cy="120" r="15" fill="white"/>
  <path d="M350 85 L355 95 L365 90 L360 100 L370 105 L360 110 L365 120 L355 115 L350 125 L345 115 L335 120 L340 110 L330 105 L340 100 L335 90 L345 95 Z" fill="#FF8C00"/>
  
  <!-- Magnifying glass -->
  <circle cx="150" cy="120" r="25" fill="none" stroke="#4B0082" stroke-width="3"/>
  <line x1="130" y1="140" x2="110" y2="160" stroke="#4B0082" stroke-width="3"/>
</svg> 